<?xml version="1.0" standalone="no"?>
<!DOCTYPE svg PUBLIC "-//W3C//DTD SVG 20010904//EN"
 "http://www.w3.org/TR/2001/REC-SVG-20010904/DTD/svg10.dtd">
<svg version="1.0" xmlns="http://www.w3.org/2000/svg"
 width="1628.000000pt" height="664.000000pt" viewBox="0 0 1628.000000 664.000000"
 preserveAspectRatio="xMidYMid meet">

<g transform="translate(0.000000,664.000000) scale(0.100000,-0.100000)"
fill="#000000" stroke="none">
<path d="M230 6225 l0 -205 275 0 275 0 0 205 0 205 -275 0 -275 0 0 -205z
m371 123 c64 -22 108 -68 109 -116 0 -54 -59 -115 -120 -124 -22 -3 -25 1 -28
29 -3 27 1 33 22 39 13 3 32 14 42 25 15 17 16 24 5 57 l-13 38 -104 0 c-69 0
-104 -3 -102 -10 0 -6 -2 -19 -7 -29 -14 -32 3 -65 40 -77 19 -6 32 -16 29
-22 -6 -10 -33 -7 -69 8 -18 7 -18 6 -6 -9 7 -9 26 -17 42 -17 19 0 29 -5 29
-15 0 -42 -99 4 -133 62 -47 82 46 171 179 173 28 0 66 -5 85 -12z"/>
<path d="M1838 6393 c-19 -5 -25 -23 -8 -23 15 0 13 -173 -2 -188 -9 -9 -3
-12 27 -12 30 0 36 3 27 12 -30 30 -4 133 28 113 15 -9 13 -112 -2 -118 -7 -3
7 -5 32 -5 25 0 39 2 33 5 -8 3 -13 23 -13 48 0 63 -15 95 -43 95 -13 0 -28
-5 -35 -12 -9 -9 -12 0 -12 40 0 29 -3 51 -7 51 -5 -1 -16 -3 -25 -6z"/>
<path d="M2557 6287 c-39 -119 -43 -137 -27 -121 9 9 80 209 80 226 0 4 -4 8
-8 8 -4 0 -24 -51 -45 -113z"/>
<path d="M2647 6287 c-39 -119 -43 -137 -27 -121 9 9 80 209 80 226 0 4 -4 8
-8 8 -4 0 -24 -51 -45 -113z"/>
<path d="M2895 6390 c-7 -12 2 -30 16 -30 5 0 9 9 9 20 0 21 -15 27 -25 10z"/>
<path d="M3058 6393 c-19 -5 -25 -23 -8 -23 15 0 13 -173 -2 -188 -9 -9 -3
-12 27 -12 30 0 36 3 27 12 -30 30 -4 133 28 113 15 -9 13 -112 -2 -118 -7 -3
7 -5 32 -5 25 0 39 2 33 5 -8 3 -13 23 -13 48 0 63 -15 95 -43 95 -13 0 -28
-5 -35 -12 -9 -9 -12 0 -12 40 0 29 -3 51 -7 51 -5 -1 -16 -3 -25 -6z"/>
<path d="M3366 6387 c-17 -12 -17 -14 -2 -20 13 -5 16 -22 16 -96 0 -50 5 -93
10 -96 21 -13 71 -7 90 10 29 26 36 79 15 111 -14 21 -23 25 -51 22 l-34 -4 0
43 c0 46 -12 54 -44 30z m102 -143 c3 -44 -14 -69 -42 -58 -11 4 -16 19 -16
48 0 49 6 58 35 54 16 -2 21 -12 23 -44z"/>
<path d="M4183 6290 c-21 -60 -41 -110 -45 -110 -5 0 -8 23 -8 51 0 81 -27
107 -80 79 -13 -7 -21 -7 -25 0 -8 13 -52 13 -61 -1 -5 -8 -9 -8 -14 1 -4 7
-16 9 -29 5 -21 -6 -29 -25 -11 -25 14 0 12 -94 -2 -108 -9 -9 -4 -12 26 -12
32 0 37 2 27 14 -18 21 -10 97 12 110 24 15 37 -6 37 -61 0 -30 -5 -45 -17
-52 -14 -8 -8 -10 27 -10 25 0 39 3 33 6 -18 7 -17 97 2 113 8 6 19 9 25 5 15
-9 13 -112 -2 -118 -7 -2 8 -6 34 -8 l47 -4 37 105 c21 58 39 111 42 118 2 6
0 12 -6 12 -6 0 -27 -49 -49 -110z"/>
<path d="M4425 6390 c-7 -12 2 -30 16 -30 5 0 9 9 9 20 0 21 -15 27 -25 10z"/>
<path d="M4814 6385 c-11 -8 -14 -15 -6 -15 9 0 12 -26 12 -94 0 -94 0 -94 28
-104 54 -19 101 17 102 79 0 55 -54 91 -88 57 -9 -9 -12 0 -12 40 0 55 -5 61
-36 37z m94 -107 c25 -25 5 -98 -27 -98 -25 0 -45 83 -24 103 10 11 38 8 51
-5z"/>
<path d="M2971 6340 c-15 -21 -20 -35 -13 -39 6 -4 12 -33 14 -66 3 -52 6 -60
24 -63 11 -2 27 4 34 13 12 15 11 16 -6 13 -16 -3 -19 4 -22 50 -2 42 0 52 12
52 9 0 16 5 16 10 0 6 -6 10 -14 10 -8 0 -16 12 -18 26 l-3 26 -24 -32z"/>
<path d="M1991 6333 c-14 -16 -19 -29 -12 -31 6 -2 11 -25 11 -52 0 -27 3 -55
6 -64 8 -21 50 -21 58 0 4 12 2 15 -9 10 -12 -4 -15 5 -15 49 0 52 1 55 25 55
23 0 25 -3 25 -49 0 -27 3 -56 6 -65 8 -21 50 -21 58 0 4 12 2 15 -9 10 -12
-4 -15 5 -15 49 0 55 4 60 34 49 13 -5 16 -23 16 -88 0 -50 -5 -87 -12 -94 -9
-9 -2 -12 33 -12 35 1 40 3 27 11 -10 5 -18 21 -18 34 0 20 5 24 32 23 21 -1
37 6 50 22 22 28 24 93 2 114 -18 19 -55 21 -72 4 -9 -9 -12 -9 -12 0 0 7 -10
12 -22 11 -45 -4 -58 1 -58 21 0 11 -4 20 -10 20 -5 0 -14 -9 -20 -20 -6 -12
-21 -20 -35 -20 -18 0 -25 5 -25 20 0 27 -10 25 -39 -7z m270 -67 c22 -49 -12
-104 -46 -76 -15 12 -21 81 -8 93 14 15 44 6 54 -17z"/>
<path d="M2330 6300 c-13 -25 -1 -51 34 -69 31 -17 41 -40 19 -48 -10 -4 -23
2 -34 15 -22 28 -29 28 -29 -2 0 -19 6 -25 29 -28 37 -5 66 6 75 28 8 20 -18
64 -38 64 -7 0 -19 7 -26 15 -10 13 -11 18 -1 28 10 9 16 7 31 -10 23 -29 30
-29 30 2 0 22 -4 25 -40 25 -29 0 -42 -5 -50 -20z"/>
<path d="M2462 6303 c2 -10 10 -18 18 -18 8 0 16 8 18 18 2 12 -3 17 -18 17
-15 0 -20 -5 -18 -17z"/>
<path d="M2736 6304 c-18 -17 -21 -60 -6 -69 7 -4 7 -13 0 -26 -6 -11 -8 -24
-5 -29 3 -5 0 -19 -7 -30 -11 -18 -10 -23 6 -36 31 -22 83 -18 111 11 14 13
25 28 25 33 0 18 -32 36 -73 42 -42 7 -38 13 15 24 20 5 30 14 34 34 4 15 11
32 16 38 5 8 -4 13 -29 18 -57 9 -70 7 -87 -10z m59 -33 c0 -40 -19 -51 -35
-21 -14 27 -3 62 18 58 12 -2 17 -14 17 -37z m44 -117 c11 -11 -20 -26 -54
-26 -42 0 -50 5 -41 28 5 13 14 15 48 10 23 -4 44 -9 47 -12z"/>
<path d="M2880 6309 c-11 -8 -12 -12 -2 -16 7 -3 12 -25 12 -58 0 -33 -5 -55
-12 -58 -7 -3 5 -6 27 -6 30 -1 36 2 27 11 -7 7 -12 39 -12 75 0 65 -8 75 -40
52z"/>
<path d="M3203 6309 c13 -8 17 -23 17 -69 0 -66 16 -85 57 -69 13 5 25 4 28
-1 3 -5 16 -5 31 2 17 8 21 14 12 19 -6 4 -14 35 -16 68 -4 58 -6 61 -30 61
-20 0 -23 -3 -14 -12 18 -18 15 -105 -4 -112 -27 -10 -34 3 -34 65 l0 59 -32
0 c-27 -1 -30 -2 -15 -11z"/>
<path d="M3628 6303 c-24 -29 -29 -54 -18 -88 18 -56 84 -64 110 -15 14 26 8
36 -10 15 -28 -34 -70 -10 -70 41 0 45 23 61 48 33 25 -26 47 -18 32 12 -14
25 -71 26 -92 2z"/>
<path d="M3765 6300 c-26 -29 -25 -85 2 -111 30 -30 72 -28 100 5 29 34 29 65
2 100 -26 33 -77 36 -104 6z m85 -60 c0 -22 -7 -43 -16 -51 -14 -11 -19 -10
-35 10 -24 30 -25 87 -2 100 27 15 53 -14 53 -59z"/>
<path d="M4242 6303 c8 -10 25 -43 37 -73 13 -30 27 -59 31 -63 4 -5 20 22 35
60 15 37 31 74 37 81 8 9 4 12 -16 12 -16 0 -25 -4 -21 -10 8 -13 -13 -80 -25
-80 -12 0 -33 67 -25 80 4 6 -8 10 -31 10 -34 0 -36 -1 -22 -17z"/>
<path d="M4410 6309 c-11 -8 -12 -12 -2 -16 7 -3 12 -25 12 -58 0 -33 -5 -55
-12 -58 -7 -3 5 -6 27 -6 30 -1 36 2 27 11 -7 7 -12 39 -12 75 0 65 -8 75 -40
52z"/>
<path d="M4493 6313 c-7 -3 -13 -9 -13 -14 0 -6 5 -7 10 -4 6 4 10 -16 10 -54
0 -38 -4 -61 -12 -64 -7 -3 7 -5 32 -5 25 0 39 2 33 5 -20 8 -17 109 3 117 9
3 20 4 25 0 13 -8 11 -98 -3 -112 -9 -9 -3 -12 27 -12 30 0 36 3 27 12 -7 7
-12 35 -12 64 0 29 -5 56 -13 62 -12 10 -91 14 -114 5z"/>
<path d="M4670 6300 c-45 -45 -12 -133 50 -133 60 0 92 77 54 131 -20 29 -76
30 -104 2z m81 -27 c12 -33 11 -56 -4 -77 -17 -23 -43 -12 -56 25 -23 67 35
118 60 52z"/>
<path d="M4990 6300 c-53 -53 2 -157 66 -128 22 10 51 58 35 58 -5 0 -11 -7
-15 -15 -3 -8 -17 -15 -30 -15 -43 0 -62 63 -29 96 16 16 18 15 31 -5 16 -23
42 -28 42 -8 0 39 -67 50 -100 17z"/>
<path d="M2460 6185 c0 -8 9 -15 20 -15 11 0 20 7 20 15 0 8 -9 15 -20 15 -11
0 -20 -7 -20 -15z"/>
<path d="M3540 6186 c0 -8 4 -17 9 -20 11 -7 33 18 24 27 -12 12 -33 7 -33 -7z"/>
<path d="M11760 5992 c-35 -2 -71 -9 -80 -16 -18 -16 -62 -14 -68 2 -2 7 -24
12 -52 12 -55 0 -63 -8 -74 -75 -11 -65 -17 -76 -42 -85 -16 -6 -24 -17 -24
-33 0 -16 -9 -28 -27 -36 -69 -31 -115 -63 -104 -74 13 -13 -30 -91 -76 -133
-32 -29 -33 -34 -33 -104 0 -67 2 -75 28 -96 28 -25 57 -31 67 -14 20 32 34
-42 19 -98 l-6 -22 -45 25 c-25 14 -49 25 -54 25 -5 0 -9 -36 -9 -80 0 -73 2
-80 20 -80 11 0 20 -4 20 -10 0 -5 -9 -10 -20 -10 -36 0 -22 -29 18 -36 53 -9
79 -28 103 -76 20 -40 20 -42 3 -55 -10 -7 -13 -13 -7 -13 6 0 14 -24 18 -52
3 -29 11 -75 17 -102 8 -38 8 -50 -2 -56 -14 -9 -80 18 -80 32 0 11 -48 10
-71 -2 -18 -10 -19 -25 -19 -395 l0 -385 415 0 c270 0 415 3 415 10 0 6 11 10
25 10 58 0 145 56 115 75 -5 3 -47 12 -92 20 -106 19 -130 31 -126 64 2 21 9
27 36 29 18 2 54 -1 79 -6 33 -7 58 -7 92 3 134 38 223 20 229 -44 2 -19 12
-46 23 -59 10 -14 19 -30 19 -36 0 -24 25 -47 43 -40 22 8 23 61 0 86 -9 10
-18 28 -19 41 -1 12 -8 60 -14 105 -9 67 -9 90 1 115 25 59 9 106 -58 178 -19
20 -37 49 -41 64 -7 25 -68 73 -94 75 -13 0 12 -54 37 -80 27 -30 80 -118 106
-178 l18 -42 -36 -15 c-46 -19 -73 -19 -101 1 -19 13 -23 24 -20 57 l3 42 -60
-1 c-33 0 -93 -6 -132 -14 -70 -14 -75 -13 -125 9 -29 13 -72 29 -95 34 -51
14 -61 38 -31 80 15 21 27 28 44 24 24 -4 37 14 67 103 17 50 35 101 50 143
14 41 34 57 68 57 24 0 37 -11 75 -62 l45 -63 -7 50 c-4 28 -14 60 -22 73 -20
31 -1 53 25 30 10 -8 36 -24 58 -34 22 -10 54 -28 70 -40 35 -26 80 -40 88
-26 4 5 -12 28 -34 52 -33 35 -39 48 -34 69 9 35 11 36 30 17 19 -19 12 -18
99 -6 47 7 73 7 81 0 7 -6 37 -11 66 -13 46 -2 54 1 51 15 -4 27 16 31 32 6
12 -19 13 -36 6 -87 -5 -35 -13 -68 -19 -74 -40 -40 -315 -70 -397 -42 -52 18
-84 19 -84 4 0 -25 55 -56 66 -37 5 8 56 9 172 5 162 -7 166 -7 233 20 61 24
71 31 89 70 11 23 20 47 20 52 0 16 51 71 81 86 15 8 39 15 53 15 15 0 27 7
31 18 3 11 17 24 30 30 14 6 25 16 25 21 0 5 16 28 35 50 33 41 36 58 13 88
-12 15 -4 142 14 249 16 88 22 104 43 104 29 0 31 31 12 133 -22 116 -19 108
-52 166 -14 24 -25 50 -25 57 0 18 -69 72 -101 79 -16 4 -44 17 -63 30 l-35
24 -483 3 c-266 2 -512 2 -548 0z m670 -56 c0 -3 -4 -8 -10 -11 -5 -3 -10 -1
-10 4 0 6 5 11 10 11 6 0 10 -2 10 -4z m-840 -20 c0 -3 -4 -8 -10 -11 -5 -3
-10 -1 -10 4 0 6 5 11 10 11 6 0 10 -2 10 -4z m650 -21 c0 -8 -4 -17 -10 -20
-6 -4 -10 5 -10 20 0 15 4 24 10 20 6 -3 10 -12 10 -20z m60 -56 c0 -27 -2
-30 -15 -19 -8 7 -15 21 -15 31 0 11 7 19 15 19 10 0 15 -10 15 -31z m170 16
c0 -8 -4 -15 -10 -15 -5 0 -10 7 -10 15 0 8 5 15 10 15 6 0 10 -7 10 -15z
m-263 -37 c-3 -7 -5 -2 -5 12 0 14 2 19 5 13 2 -7 2 -19 0 -25z m-266 -322
c83 -57 194 -68 277 -28 36 17 41 17 87 3 47 -15 51 -20 72 -71 l22 -55 -22
-17 c-12 -10 -36 -18 -54 -18 -17 0 -34 -4 -37 -9 -8 -12 76 -23 119 -15 32 6
40 2 80 -35 40 -37 50 -41 92 -40 67 2 100 -13 108 -50 6 -28 57 -91 74 -91 4
0 16 -9 25 -19 17 -18 16 -20 -17 -45 -41 -32 -82 -33 -163 -6 -32 11 -86 23
-119 26 -33 4 -66 12 -73 17 -20 15 -105 14 -192 -2 -62 -12 -81 -20 -109 -48
-30 -31 -68 -53 -92 -53 -5 0 -19 17 -33 38 -13 20 -39 45 -57 54 -34 16 -144
33 -289 43 -85 6 -130 21 -130 42 0 7 7 30 15 49 20 48 21 82 5 127 -11 28
-11 42 -4 55 9 14 93 65 144 88 8 3 35 16 60 28 50 24 137 53 160 55 9 1 31
-10 51 -23z m-663 -48 c12 -43 -3 -73 -31 -62 -18 6 -23 56 -10 102 5 19 8 21
18 10 8 -7 18 -30 23 -50z m-3 -368 c3 -5 -3 -10 -14 -10 -11 0 -23 5 -26 10
-3 6 3 10 14 10 11 0 23 -4 26 -10z m395 -154 c0 -20 -16 -29 -40 -21 -11 4
-17 12 -13 21 7 19 53 19 53 0z m160 -162 c-27 -32 -83 -47 -177 -48 -97 -1
-120 7 -89 30 14 10 50 14 120 15 56 0 110 4 121 9 31 13 39 11 25 -6z m-54
-88 c19 -14 18 -15 -5 -40 -14 -15 -45 -39 -70 -54 l-46 -27 37 -3 c57 -5 64
-29 25 -86 -27 -40 -36 -46 -57 -40 -57 13 -79 66 -39 94 19 14 17 15 -28 20
l-48 5 -3 47 c-2 37 -7 48 -24 54 -16 5 -18 8 -7 15 8 5 21 7 29 4 8 -2 51 2
95 9 106 18 118 18 141 2z m249 -446 c3 -5 1 -10 -4 -10 -6 0 -11 5 -11 10 0
6 2 10 4 10 3 0 8 -4 11 -10z"/>
<path d="M11772 5131 c2 -7 7 -12 11 -12 12 1 9 15 -3 20 -7 2 -11 -2 -8 -8z"/>
<path d="M230 5740 l0 -160 275 0 275 0 0 160 0 160 -275 0 -275 0 0 -160z
m430 111 c0 -10 -135 -81 -155 -81 -20 0 -165 72 -165 82 0 4 72 8 160 8 88 0
160 -4 160 -9z m-230 -91 c33 -16 66 -30 75 -30 9 0 42 14 75 30 33 17 62 30
65 30 3 0 5 -36 5 -80 l0 -80 -145 0 -145 0 0 80 c0 44 2 80 5 80 3 0 32 -13
65 -30z"/>
<path d="M2005 5890 c-7 -12 2 -30 16 -30 5 0 9 9 9 20 0 21 -15 27 -25 10z"/>
<path d="M2394 5885 c-11 -8 -14 -15 -6 -15 9 0 12 -26 12 -94 0 -102 2 -106
59 -106 38 0 71 38 71 82 0 54 -55 89 -88 56 -9 -9 -12 0 -12 40 0 55 -5 61
-36 37z m106 -146 c0 -15 -7 -35 -16 -43 -18 -18 -17 -18 -38 -10 -23 9 -22
90 1 103 24 13 53 -14 53 -50z"/>
<path d="M2700 5888 c-15 -6 -20 -12 -12 -15 8 -3 12 -33 12 -98 0 -65 -4 -95
-12 -98 -7 -3 7 -6 32 -6 35 0 41 2 28 10 -13 7 -18 23 -18 53 0 46 19 72 45
62 19 -7 21 -96 3 -114 -9 -9 -3 -12 28 -11 21 0 33 3 27 6 -8 3 -13 26 -13
63 0 70 -16 90 -60 73 l-29 -11 -3 48 c-3 46 -4 47 -28 38z"/>
<path d="M3244 5885 c-11 -8 -14 -15 -6 -15 6 0 12 -11 12 -25 0 -21 -5 -25
-29 -25 -57 0 -90 -78 -56 -128 13 -17 25 -21 64 -21 27 1 55 5 62 10 10 6 11
9 2 9 -10 0 -13 28 -13 105 0 58 -4 105 -8 105 -5 0 -17 -7 -28 -15z m-6 -87
c7 -7 12 -31 12 -55 0 -53 -23 -68 -52 -34 -22 28 -23 50 -2 79 17 25 25 27
42 10z"/>
<path d="M3754 5880 c-104 -52 -112 -209 -13 -262 40 -21 78 -23 122 -4 34 14
92 74 82 84 -3 3 -19 -11 -36 -31 -76 -92 -219 -49 -219 66 0 109 99 183 184
138 50 -27 59 -113 15 -159 -40 -44 -49 -21 -24 62 14 46 14 48 -4 43 -10 -2
-26 0 -35 5 -34 19 -109 -84 -92 -127 7 -20 45 -19 68 2 17 15 18 15 18 0 0
-18 33 -23 65 -11 38 15 58 105 34 158 -13 28 -64 56 -101 56 -12 0 -41 -9
-64 -20z m79 -105 c-3 -38 -48 -84 -65 -67 -18 18 26 105 50 100 12 -3 16 -12
15 -33z"/>
<path d="M4530 5880 c0 -13 5 -20 13 -17 6 2 12 10 12 17 0 7 -6 15 -12 18 -8
2 -13 -5 -13 -18z"/>
<path d="M4610 5889 c-23 -9 -23 -11 -7 -20 14 -8 17 -24 17 -92 0 -51 -5 -88
-12 -95 -9 -9 -3 -12 28 -11 21 0 33 3 27 6 -9 3 -13 36 -13 114 0 60 -3 109
-7 108 -5 0 -19 -5 -33 -10z"/>
<path d="M5621 5889 c-22 -9 -22 -11 -8 -22 13 -9 17 -33 19 -102 l3 -90 41
-3 c51 -4 79 23 79 78 0 52 -20 73 -62 67 l-33 -6 0 45 c0 47 -2 48 -39 33z
m100 -126 c12 -33 -9 -78 -36 -78 -17 0 -20 8 -23 49 -3 50 8 69 35 59 8 -3
19 -17 24 -30z"/>
<path d="M6193 5889 c-65 -19 -110 -108 -93 -182 24 -107 158 -141 237 -62 18
18 33 39 33 46 0 7 -15 -3 -33 -23 -100 -110 -256 -31 -218 110 31 112 176
145 216 49 22 -52 -10 -137 -52 -137 -17 0 -16 5 3 69 8 29 13 55 11 57 -10
11 -78 6 -92 -6 -23 -19 -45 -65 -45 -93 0 -37 21 -49 53 -32 15 8 29 10 32 4
13 -19 63 -9 84 17 49 62 32 152 -34 180 -38 16 -56 16 -102 3z m67 -105 c0
-31 -35 -84 -56 -84 -20 0 -17 39 6 78 24 39 50 43 50 6z"/>
<path d="M6482 5889 c-21 -8 -22 -10 -8 -25 24 -24 20 -44 -10 -44 -61 0 -95
-55 -69 -116 13 -33 15 -33 69 -32 31 1 61 5 68 10 10 6 10 8 1 8 -10 0 -13
27 -13 99 0 55 -3 102 -7 104 -5 3 -18 1 -31 -4z m-13 -88 c9 -6 15 -27 15
-57 1 -39 -3 -49 -17 -52 -10 -2 -24 2 -32 8 -18 15 -20 81 -3 98 14 14 18 15
37 3z"/>
<path d="M7440 5880 c0 -13 5 -20 13 -17 6 2 12 10 12 17 0 7 -6 15 -12 18 -8
2 -13 -5 -13 -18z"/>
<path d="M6567 5872 c-25 -27 -21 -35 8 -16 20 13 28 14 40 4 22 -18 18 -46
-7 -64 -12 -9 -20 -17 -17 -18 2 -2 13 -8 24 -14 48 -26 19 -93 -32 -73 -32
12 -33 12 -33 -6 0 -11 11 -15 38 -15 65 0 106 67 67 110 -12 13 -13 22 -3 47
9 25 9 35 -1 47 -18 22 -64 20 -84 -2z"/>
<path d="M1840 5785 c10 -19 25 -53 34 -75 9 -22 20 -40 25 -40 5 0 19 27 31
60 12 33 27 63 31 66 16 10 9 24 -12 24 -11 0 -18 -4 -14 -9 3 -5 -2 -29 -12
-52 l-17 -43 -17 39 c-13 28 -15 43 -7 52 8 10 3 13 -25 13 l-35 0 18 -35z"/>
<path d="M1990 5810 c-10 -6 -11 -10 -2 -10 8 0 12 -19 12 -59 0 -38 -4 -61
-12 -64 -7 -3 5 -6 27 -6 30 -1 36 2 27 11 -7 7 -12 39 -12 75 0 64 -7 74 -40
53z"/>
<path d="M2075 5810 c-11 -5 -14 -9 -7 -9 8 -1 12 -20 12 -60 0 -38 -4 -61
-12 -64 -7 -3 7 -6 32 -6 35 0 41 2 28 10 -27 15 -25 95 2 109 11 6 25 8 30 5
14 -9 12 -99 -2 -113 -9 -9 -3 -12 27 -12 30 0 36 3 27 12 -7 7 -12 35 -12 64
0 64 -17 83 -61 67 -16 -6 -29 -7 -29 -2 0 11 -8 11 -35 -1z"/>
<path d="M2264 5812 c-17 -11 -34 -48 -34 -74 0 -42 27 -68 70 -68 29 0 43 6
54 22 22 31 20 84 -4 108 -20 20 -65 26 -86 12z m60 -24 c30 -43 10 -119 -28
-105 -35 14 -44 99 -13 119 19 12 25 10 41 -14z"/>
<path d="M2570 5798 c-24 -26 -26 -75 -4 -106 19 -27 64 -29 87 -4 24 26 21
46 -3 22 -44 -44 -95 34 -55 86 15 19 15 19 34 -3 21 -25 41 -30 41 -10 0 40
-67 50 -100 15z"/>
<path d="M2873 5813 c-15 -5 -18 -43 -4 -43 5 0 15 10 23 22 8 12 19 18 26 14
22 -14 12 -34 -25 -53 -31 -15 -38 -23 -38 -48 l0 -30 105 -2 c75 -2 100 1 88
8 -27 15 -25 95 2 109 11 6 25 8 30 5 14 -9 12 -99 -2 -113 -9 -9 -3 -12 27
-12 30 0 36 3 27 12 -7 7 -12 35 -12 64 0 64 -17 83 -60 67 -18 -7 -30 -7 -32
-1 -2 6 -13 5 -28 -1 -14 -5 -19 -10 -12 -10 15 -1 17 -121 2 -121 -5 0 -10 5
-10 11 0 5 -4 7 -10 4 -6 -4 -10 14 -10 47 0 30 -5 59 -12 66 -12 12 -52 15
-75 5z m55 -90 c-3 -32 -35 -44 -45 -17 -4 11 1 22 12 30 28 21 37 17 33 -13z"/>
<path d="M3331 5799 c-45 -48 -17 -129 44 -129 29 0 37 5 51 33 17 32 16 32
-3 15 -26 -24 -60 -23 -73 1 -17 34 -12 40 40 43 49 3 49 3 37 28 -17 35 -68
39 -96 9z m57 -1 c19 -19 14 -28 -18 -28 -16 0 -30 4 -30 8 0 9 21 32 30 32 3
0 11 -5 18 -12z"/>
<path d="M3461 5811 c-9 -6 -10 -11 -2 -15 15 -10 14 -99 -1 -114 -9 -9 -4
-12 26 -12 32 0 37 2 27 14 -7 8 -11 34 -9 57 3 40 6 44 36 50 l32 6 0 -57 c0
-37 -5 -60 -12 -63 -7 -3 6 -6 30 -6 40 -1 42 0 28 15 -16 16 -21 59 -10 88 3
9 17 16 30 16 15 0 24 6 24 15 0 18 -31 20 -48 3 -7 -7 -12 -8 -12 -2 0 12
-69 13 -87 1 -8 -5 -13 -4 -13 2 0 13 -20 14 -39 2z"/>
<path d="M3984 5803 c-10 -11 -14 -25 -9 -42 3 -14 6 -30 5 -36 -2 -31 -8 -62
-15 -79 -21 -48 90 -61 127 -16 26 32 9 56 -47 64 -50 8 -62 26 -17 26 33 0
67 32 59 54 -4 9 2 17 14 21 26 9 28 7 35 -46 5 -35 2 -49 -11 -62 -15 -16
-14 -17 25 -17 38 0 40 1 26 16 -35 34 -11 126 29 110 19 -7 22 -112 3 -119
-7 -3 7 -6 32 -6 35 0 41 2 28 10 -13 7 -18 23 -18 53 0 46 19 72 45 62 19 -7
21 -96 3 -114 -9 -9 -3 -12 27 -12 30 0 36 3 27 12 -7 7 -12 35 -12 63 0 28
-5 56 -12 63 -16 16 -50 15 -67 0 -11 -10 -14 -10 -18 0 -6 15 -37 16 -64 2
-10 -6 -19 -7 -19 -3 0 4 -36 9 -80 10 -61 1 -84 -2 -96 -14z m65 -15 c17 -46
-11 -77 -39 -43 -16 19 -5 65 16 65 8 0 18 -10 23 -22z m31 -128 c23 -14 -3
-34 -45 -34 -40 0 -50 7 -42 29 7 17 63 21 87 5z"/>
<path d="M4382 5808 c-16 -16 -15 -38 2 -38 7 0 16 9 19 21 6 24 30 21 35 -4
2 -9 -9 -22 -27 -32 -38 -19 -53 -45 -40 -67 12 -22 104 -22 122 1 9 11 9 13
0 8 -12 -8 -19 18 -25 88 -3 26 -7 30 -38 33 -19 2 -41 -3 -48 -10z m68 -77
c0 -22 -25 -45 -40 -36 -13 8 -13 28 2 43 18 18 38 14 38 -7z"/>
<path d="M4521 5811 c-9 -6 -10 -11 -2 -15 6 -4 11 -29 11 -56 0 -36 -5 -52
-17 -59 -14 -8 -8 -10 27 -10 25 0 39 3 33 6 -9 3 -13 28 -13 74 0 70 -7 80
-39 60z"/>
<path d="M4787 5803 c-25 -29 -26 -93 -1 -117 23 -24 70 -20 88 6 22 31 20 45
-2 25 -30 -27 -59 -21 -71 15 -9 25 -8 36 4 55 19 29 29 29 48 1 11 -17 18
-20 27 -12 8 9 7 15 -5 28 -22 21 -68 21 -88 -1z"/>
<path d="M4926 5801 c-24 -27 -25 -85 -1 -111 24 -27 76 -27 100 0 11 12 19
36 19 55 0 19 -8 43 -19 55 -24 26 -76 27 -99 1z m68 -7 c21 -21 21 -88 0
-105 -14 -11 -19 -10 -35 10 -21 26 -25 81 -7 99 16 16 23 15 42 -4z"/>
<path d="M5071 5811 c-9 -6 -10 -11 -2 -15 15 -10 14 -99 -1 -114 -9 -9 -3
-12 28 -12 24 0 34 3 26 9 -20 12 -12 101 11 115 24 15 37 -6 37 -61 0 -30 -5
-45 -17 -52 -14 -8 -8 -10 27 -10 25 0 39 3 33 6 -21 8 -17 109 4 117 23 9 34
-5 40 -51 4 -29 1 -44 -12 -56 -15 -16 -14 -17 27 -17 24 0 38 4 31 8 -6 4
-14 33 -17 65 -3 32 -8 62 -11 67 -9 14 -49 12 -63 -2 -9 -9 -15 -9 -24 0 -7
7 -21 12 -33 12 -12 0 -26 -5 -33 -12 -9 -9 -12 -9 -12 0 0 14 -19 15 -39 3z"/>
<path d="M5493 5813 c-15 -5 -18 -43 -4 -43 5 0 15 10 23 22 8 12 19 18 26 14
22 -14 12 -34 -25 -53 -31 -15 -38 -23 -38 -48 0 -30 0 -30 59 -30 42 0 61 4
64 14 3 8 0 11 -7 7 -8 -5 -11 9 -11 46 0 30 -5 59 -12 66 -12 12 -52 15 -75
5z m55 -90 c-3 -32 -35 -44 -45 -17 -4 11 1 22 12 30 28 21 37 17 33 -13z"/>
<path d="M5781 5811 c-9 -6 -10 -11 -2 -15 7 -4 11 -41 11 -91 0 -69 -3 -86
-17 -94 -14 -8 -8 -10 27 -10 25 0 39 3 33 6 -7 2 -13 18 -13 34 0 25 4 29 28
29 17 0 37 9 48 21 22 24 25 89 5 113 -16 19 -52 21 -69 4 -9 -9 -12 -9 -12 0
0 14 -19 15 -39 3z m97 -55 c6 -49 -6 -78 -31 -74 -18 2 -23 11 -25 42 -4 52
3 68 30 64 17 -2 24 -11 26 -32z"/>
<path d="M5950 5785 c10 -19 25 -53 34 -75 9 -22 20 -40 25 -40 5 0 19 27 31
60 12 33 27 63 31 66 16 10 9 24 -12 24 -11 0 -18 -4 -14 -9 3 -5 -2 -29 -12
-52 l-17 -43 -17 39 c-13 28 -15 43 -7 52 8 10 3 13 -25 13 l-35 0 18 -35z"/>
<path d="M6711 5811 c-9 -6 -10 -11 -2 -15 15 -10 14 -99 -1 -114 -9 -9 -3
-12 28 -12 24 0 34 3 26 9 -20 12 -12 101 11 115 24 15 37 -6 37 -61 0 -30 -5
-45 -17 -52 -14 -8 -8 -10 27 -10 25 0 39 3 33 6 -21 8 -17 109 4 117 23 9 34
-5 40 -51 4 -29 1 -44 -12 -56 -15 -16 -14 -17 27 -17 24 0 38 4 32 8 -7 4
-14 33 -18 65 -3 32 -8 62 -11 68 -9 13 -49 11 -63 -3 -9 -9 -15 -9 -24 0 -7
7 -21 12 -33 12 -12 0 -26 -5 -33 -12 -9 -9 -12 -9 -12 0 0 14 -19 15 -39 3z"/>
<path d="M7057 5803 c-25 -29 -26 -93 -1 -117 23 -24 70 -20 88 6 22 31 20 45
-2 25 -30 -27 -59 -21 -71 15 -9 25 -8 36 4 55 19 29 29 29 48 1 11 -17 18
-20 27 -12 8 9 7 15 -5 28 -22 21 -68 21 -88 -1z"/>
<path d="M7196 5801 c-24 -27 -25 -85 -1 -111 24 -27 76 -27 100 0 11 12 19
36 19 55 0 19 -8 43 -19 55 -24 26 -76 27 -99 1z m68 -7 c21 -21 21 -88 0
-105 -14 -11 -19 -10 -35 10 -21 26 -25 81 -7 99 16 16 23 15 42 -4z"/>
<path d="M7431 5811 c-9 -6 -10 -11 -2 -15 6 -4 11 -29 11 -56 0 -36 -5 -52
-17 -59 -13 -8 4 -10 67 -10 63 0 80 2 68 10 -27 15 -25 95 2 109 11 6 25 8
30 5 14 -9 12 -99 -2 -113 -9 -9 -3 -12 27 -12 30 0 36 3 27 12 -7 7 -12 35
-12 64 0 64 -17 83 -60 67 -18 -7 -30 -7 -32 -1 -2 6 -13 5 -28 -1 -14 -5 -19
-10 -12 -10 8 -1 12 -20 12 -61 0 -53 -2 -60 -20 -60 -18 0 -20 7 -20 70 0 71
-7 81 -39 61z"/>
<path d="M4700 5685 c0 -8 7 -15 15 -15 8 0 15 7 15 15 0 8 -7 15 -15 15 -8 0
-15 -7 -15 -15z"/>
<path d="M5320 5686 c0 -9 7 -16 15 -16 20 0 19 -20 -2 -36 -10 -7 -13 -14 -6
-14 20 0 44 31 41 54 -4 25 -48 36 -48 12z"/>
<path d="M6970 5685 c0 -8 7 -15 15 -15 8 0 15 7 15 15 0 8 -7 15 -15 15 -8 0
-15 -7 -15 -15z"/>
<path d="M7350 5685 c0 -8 7 -15 15 -15 8 0 15 7 15 15 0 8 -7 15 -15 15 -8 0
-15 -7 -15 -15z"/>
<path d="M230 5275 l0 -195 280 0 280 0 0 195 0 195 -280 0 -280 0 0 -195z
m401 93 c43 -14 49 -24 39 -59 -12 -42 -47 -87 -80 -104 -45 -23 -128 -38
-168 -30 l-37 8 33 9 c38 10 41 23 7 32 -15 4 -22 11 -19 20 3 8 -3 17 -14 20
-12 4 -20 15 -19 29 0 12 -4 31 -8 41 -9 21 -6 21 70 -8 59 -22 95 -21 95 4 0
18 17 30 66 50 1 0 16 -5 35 -12z"/>
<path d="M1826 5337 c-100 -57 -102 -213 -3 -260 67 -32 130 -17 181 44 40 47
23 47 -22 0 -36 -38 -43 -41 -90 -41 -40 0 -57 5 -81 26 -53 44 -54 132 -3
193 24 29 36 35 83 39 53 4 57 3 83 -29 24 -28 27 -39 23 -73 -5 -39 -49 -97
-63 -83 -4 4 0 33 9 64 8 32 15 58 14 59 -1 1 -17 4 -34 7 -27 5 -39 1 -68
-24 -42 -37 -56 -92 -31 -117 14 -15 18 -14 46 6 22 17 30 19 30 8 0 -41 71
-22 96 25 61 120 -52 224 -170 156z m90 -81 c6 -16 -17 -66 -41 -86 -12 -10
-19 -10 -28 -1 -9 9 -6 22 12 56 24 45 47 57 57 31z"/>
<path d="M2214 5349 c-10 -17 13 -36 27 -22 12 12 4 33 -11 33 -5 0 -12 -5
-16 -11z"/>
<path d="M2610 5349 c-23 -9 -23 -11 -7 -20 14 -8 17 -25 17 -99 0 -49 5 -92
10 -95 21 -13 71 -7 90 10 29 26 36 79 15 111 -14 21 -23 25 -51 22 l-34 -4 0
43 c0 46 -2 47 -40 32z m98 -145 c3 -44 -14 -69 -42 -58 -11 4 -16 19 -16 48
0 49 6 58 35 54 16 -2 21 -12 23 -44z"/>
<path d="M2918 5353 c-19 -5 -25 -23 -8 -23 15 0 13 -173 -2 -188 -9 -9 -3
-12 27 -12 30 0 36 3 27 12 -30 30 -4 133 28 113 15 -9 13 -112 -2 -118 -7 -3
7 -5 32 -5 25 0 39 2 33 5 -8 3 -13 23 -13 48 0 63 -15 95 -43 95 -13 0 -28
-5 -35 -12 -9 -9 -12 0 -12 40 0 29 -3 51 -7 51 -5 -1 -16 -3 -25 -6z"/>
<path d="M3454 5345 c-11 -8 -14 -15 -6 -15 6 0 12 -11 12 -25 0 -21 -5 -25
-30 -25 -53 0 -88 -97 -48 -136 19 -19 95 -23 123 -6 11 6 14 12 8 12 -10 0
-13 28 -13 105 0 111 -5 121 -46 90z m-6 -87 c7 -7 12 -34 12 -60 0 -41 -3
-48 -20 -48 -22 0 -40 27 -40 60 0 24 17 60 28 60 5 0 13 -5 20 -12z"/>
<path d="M2030 5271 c0 -5 4 -11 9 -13 5 -1 20 -30 33 -62 13 -33 28 -61 34
-63 6 -2 21 23 33 54 32 77 43 89 65 68 21 -21 21 -88 0 -109 -14 -15 -11 -16
28 -15 24 0 37 3 31 6 -9 3 -13 28 -13 72 l0 68 -62 1 c-34 1 -57 -3 -50 -7
10 -6 9 -17 -4 -52 l-18 -43 -17 39 c-13 28 -15 43 -7 52 8 10 2 13 -26 13
-20 0 -36 -4 -36 -9z"/>
<path d="M2290 5269 c-11 -8 -12 -12 -2 -16 16 -6 16 -95 0 -111 -9 -9 -3 -12
27 -12 30 0 36 3 27 12 -20 20 -15 96 7 107 10 6 21 7 25 4 12 -12 6 -111 -6
-116 -7 -3 7 -5 32 -5 25 0 39 2 33 5 -8 3 -13 24 -13 54 0 28 -5 59 -10 70
-12 21 -50 25 -68 7 -9 -9 -12 -9 -12 0 0 15 -20 15 -40 1z"/>
<path d="M2465 5260 c-26 -29 -25 -85 2 -111 30 -30 72 -28 100 5 29 34 29 65
2 100 -26 33 -77 36 -104 6z m85 -65 c0 -18 -7 -39 -16 -46 -14 -11 -19 -10
-35 10 -41 51 -8 139 34 90 9 -12 17 -36 17 -54z"/>
<path d="M2788 5263 c-24 -29 -29 -54 -18 -88 18 -56 84 -64 110 -15 14 26 8
36 -10 15 -28 -34 -70 -10 -70 41 0 45 23 61 48 33 25 -26 47 -18 32 12 -14
25 -71 26 -92 2z"/>
<path d="M3082 5268 c-16 -16 -15 -38 2 -38 7 0 16 9 19 21 6 24 30 21 35 -4
2 -9 -9 -22 -27 -32 -17 -8 -35 -24 -41 -36 -20 -37 1 -46 106 -47 72 -1 94 2
85 11 -29 29 -3 132 29 112 15 -9 13 -112 -2 -118 -7 -3 7 -5 32 -5 25 0 39 2
33 5 -8 3 -13 24 -13 54 0 28 -5 59 -10 70 -12 21 -54 26 -66 8 -5 -8 -9 -8
-14 1 -5 7 -16 9 -30 5 -16 -5 -19 -10 -11 -18 12 -12 15 -99 5 -110 -13 -13
-34 23 -34 58 0 54 -15 75 -53 75 -18 0 -38 -5 -45 -12z m50 -110 c-6 -6 -15
-7 -21 -4 -17 11 -13 34 7 45 13 8 18 6 20 -11 2 -11 -1 -25 -6 -30z"/>
<path d="M3548 5263 c-31 -36 -28 -104 5 -125 34 -22 97 5 97 42 0 10 -5 9
-18 -3 -25 -23 -48 -21 -66 5 -24 34 -20 38 34 38 52 0 58 7 40 41 -14 25 -71
26 -92 2z m62 -24 c0 -5 -11 -9 -25 -9 -26 0 -35 25 -12 33 13 5 37 -10 37
-24z"/>
<path d="M3671 5271 c-9 -6 -10 -11 -2 -15 15 -10 14 -99 -1 -114 -9 -9 -2
-12 32 -12 38 0 42 2 26 13 -13 10 -17 24 -14 57 3 41 6 45 31 48 16 2 27 8
24 15 -4 14 -77 19 -96 8z"/>
<path d="M13093 5006 c-15 -13 -26 -27 -23 -30 8 -7 70 31 70 44 0 17 -17 11
-47 -14z"/>
<path d="M230 4955 c0 -22 4 -25 35 -25 45 0 45 -18 0 -47 -32 -21 -34 -26
-33 -70 1 -27 8 -57 15 -68 18 -26 17 -49 -2 -41 -12 4 -15 -6 -15 -64 l0 -70
120 0 c67 0 120 4 120 9 0 5 -10 12 -22 14 -13 2 3 5 34 6 31 0 60 -3 63 -9
13 -21 21 -9 17 25 -4 35 -22 60 -22 31 0 -9 -7 -16 -15 -16 -8 0 -15 5 -15
10 0 6 -20 10 -44 10 -24 0 -51 3 -60 6 -14 5 -14 8 -1 20 8 8 18 21 22 29 13
23 190 40 185 18 -3 -19 10 -16 62 13 40 22 46 30 46 58 0 18 5 37 11 43 17
17 1 52 -34 74 l-32 19 63 0 62 0 0 -99 c0 -91 -2 -100 -20 -106 -11 -4 -17
-11 -14 -17 4 -6 -2 -8 -17 -3 -19 5 -21 4 -9 -4 8 -6 23 -11 33 -11 10 0 15
-4 12 -10 -3 -5 -3 -16 2 -22 4 -7 8 -32 8 -55 l0 -43 -277 0 c-240 0 -278 -2
-278 -15 0 -13 39 -15 290 -15 l290 0 0 225 0 225 -290 0 -290 0 0 -25z m316
-141 c6 -8 25 -17 42 -20 17 -4 38 -14 47 -24 15 -16 10 -17 -97 -14 -62 1
-139 6 -170 10 -51 6 -57 9 -54 28 2 15 15 24 42 32 50 15 175 7 190 -12z
m-176 -128 c0 -7 -7 -19 -15 -26 -19 -16 -50 11 -32 29 15 15 47 14 47 -3z"/>
<path d="M13211 4864 c-13 -13 -34 -24 -46 -24 -54 0 -52 -41 5 -85 49 -38 88
-91 96 -133 6 -29 5 -32 -17 -30 -20 3 -25 -3 -32 -32 -6 -22 -5 -45 2 -63 9
-24 14 -26 31 -17 36 20 42 46 42 218 0 147 -2 168 -18 179 -24 17 -35 15 -63
-13z"/>
<path d="M1834 4845 c-11 -8 -14 -15 -6 -15 17 0 17 -171 0 -188 -9 -9 -3 -12
28 -11 21 0 33 3 27 6 -19 7 -17 97 2 113 23 19 34 2 36 -54 2 -32 -2 -51 -12
-57 -9 -6 1 -9 31 -9 30 0 40 3 31 9 -8 5 -16 35 -20 72 -5 57 -9 64 -29 67
-13 2 -30 -2 -38 -8 -12 -11 -14 -5 -14 39 0 54 -5 59 -36 36z"/>
<path d="M2595 4850 c-6 -9 -75 -209 -75 -217 0 -2 4 -3 8 -3 11 0 87 219 79
226 -3 3 -8 0 -12 -6z"/>
<path d="M2685 4850 c-6 -9 -75 -209 -75 -217 0 -2 4 -3 8 -3 11 0 87 219 79
226 -3 3 -8 0 -12 -6z"/>
<path d="M2895 4850 c-7 -12 2 -30 16 -30 5 0 9 9 9 20 0 21 -15 27 -25 10z"/>
<path d="M3281 4849 c-22 -9 -22 -11 -8 -22 13 -9 17 -33 19 -102 l3 -90 41
-3 c51 -4 79 23 79 78 0 52 -20 73 -62 67 l-33 -6 0 45 c0 47 -2 48 -39 33z
m100 -126 c12 -33 -9 -78 -36 -78 -17 0 -20 8 -23 49 -3 50 8 69 35 59 8 -3
19 -17 24 -30z"/>
<path d="M3840 4840 c0 -13 5 -20 13 -17 6 2 12 10 12 17 0 7 -6 15 -12 18 -8
2 -13 -5 -13 -18z"/>
<path d="M4004 4845 c-11 -8 -14 -15 -6 -15 17 0 17 -171 0 -188 -9 -9 -3 -12
28 -11 21 0 33 3 27 6 -19 7 -17 97 2 113 23 19 36 1 37 -54 0 -31 -4 -51 -13
-57 -9 -6 1 -9 31 -9 30 0 40 3 31 9 -8 5 -16 35 -20 72 -5 57 -9 64 -29 67
-13 2 -30 -2 -38 -8 -12 -11 -14 -5 -14 39 0 54 -5 59 -36 36z"/>
<path d="M4321 4849 c-22 -9 -22 -11 -8 -22 13 -9 17 -33 19 -102 l3 -90 41
-3 c51 -4 79 23 79 78 0 52 -20 73 -62 67 l-33 -6 0 45 c0 47 -2 48 -39 33z
m100 -126 c12 -33 -9 -78 -36 -78 -17 0 -20 8 -23 49 -3 50 8 69 35 59 8 -3
19 -17 24 -30z"/>
<path d="M4575 4850 c-7 -12 2 -30 16 -30 5 0 9 9 9 20 0 21 -15 27 -25 10z"/>
<path d="M4865 4850 c-6 -9 -75 -209 -75 -217 0 -2 4 -3 8 -3 11 0 87 219 79
226 -3 3 -8 0 -12 -6z"/>
<path d="M4940 4840 c-11 -11 -20 -29 -20 -40 0 -11 -7 -20 -15 -20 -8 0 -15
-4 -15 -10 0 -5 7 -10 15 -10 23 0 21 -105 -2 -119 -14 -8 -7 -10 32 -10 39 0
46 2 33 10 -24 14 -26 119 -3 119 8 0 15 5 15 10 0 6 -7 10 -15 10 -17 0 -21
45 -4 55 5 4 19 -1 29 -10 22 -20 39 -2 20 20 -17 21 -46 19 -70 -5z"/>
<path d="M5460 4840 c0 -13 5 -20 13 -17 6 2 12 10 12 17 0 7 -6 15 -12 18 -8
2 -13 -5 -13 -18z"/>
<path d="M5945 4750 c-37 -112 -54 -136 -56 -77 -1 34 -6 74 -14 95 -6 15 -47
16 -63 0 -9 -9 -15 -9 -24 0 -15 15 -55 16 -64 1 -5 -8 -9 -8 -14 1 -5 7 -16
9 -30 5 -16 -5 -19 -10 -11 -18 15 -15 14 -100 -1 -115 -9 -9 -3 -12 28 -12
24 0 34 3 26 9 -20 12 -12 101 11 115 24 15 37 -6 37 -61 0 -30 -5 -45 -17
-52 -14 -8 -8 -10 27 -10 25 0 39 3 33 6 -8 3 -13 25 -13 58 0 41 4 54 17 59
38 15 60 -75 27 -109 -15 -15 -13 -16 31 -13 l48 3 38 113 c21 61 34 112 29
112 -5 0 -25 -49 -45 -110z"/>
<path d="M12900 4835 c0 -8 4 -15 10 -15 5 0 7 7 4 15 -4 8 -8 15 -10 15 -2 0
-4 -7 -4 -15z"/>
<path d="M3921 4797 c-16 -19 -20 -31 -13 -36 6 -3 12 -33 14 -66 3 -56 5 -60
27 -60 13 0 26 6 29 13 2 7 -2 10 -12 6 -13 -5 -16 3 -16 50 0 43 3 56 15 56
8 0 15 5 15 10 0 6 -6 10 -14 10 -8 0 -16 10 -18 23 -3 23 -3 23 -27 -6z"/>
<path d="M2000 4798 c-14 -22 -16 -108 -4 -150 6 -21 37 -24 53 -4 9 11 8 14
-6 12 -15 -1 -19 8 -21 52 -3 47 -1 52 17 52 12 0 21 5 21 10 0 6 -9 10 -19
10 -12 0 -21 8 -23 20 -3 20 -3 20 -18 -2z"/>
<path d="M2090 4798 c-14 -22 -16 -108 -4 -150 6 -21 37 -24 53 -4 9 11 8 14
-6 12 -15 -1 -19 8 -21 52 l-3 52 30 0 31 0 0 -94 c0 -66 -4 -96 -12 -99 -7
-3 7 -6 32 -6 35 0 41 2 28 10 -10 5 -18 21 -18 34 0 22 5 25 34 25 43 0 66
29 66 81 0 55 -54 91 -88 57 -9 -9 -12 -9 -12 1 0 8 -6 11 -15 7 -27 -10 -74
5 -77 26 -3 17 -4 17 -18 -4z m168 -60 c16 -16 15 -60 -2 -84 -12 -15 -18 -17
-33 -8 -18 11 -29 64 -19 90 7 17 38 18 54 2z"/>
<path d="M12991 4774 c-6 -14 -11 -31 -11 -37 0 -13 90 -107 103 -107 18 0 3
42 -37 102 -43 66 -43 66 -55 42z"/>
<path d="M2330 4761 c-14 -27 -4 -47 36 -70 37 -22 43 -38 17 -48 -10 -4 -23
2 -34 15 -22 28 -29 28 -29 -3 0 -23 4 -25 45 -25 34 0 47 5 55 19 14 27 4 47
-36 70 -34 20 -42 35 -25 45 14 9 41 -4 41 -20 0 -8 5 -14 10 -14 6 0 10 11
10 25 0 22 -4 25 -40 25 -29 0 -42 -5 -50 -19z"/>
<path d="M2467 4773 c-13 -12 -7 -23 13 -23 11 0 20 7 20 15 0 15 -21 21 -33
8z"/>
<path d="M2719 4753 c10 -16 27 -49 37 -75 11 -27 23 -48 27 -48 4 0 13 14 19
31 6 17 21 50 33 75 l22 44 -22 0 c-17 0 -22 -5 -19 -18 3 -9 -1 -33 -9 -51
l-15 -35 -17 33 c-9 19 -15 42 -12 52 4 16 -1 19 -29 19 l-35 0 20 -27z"/>
<path d="M2880 4770 c-10 -6 -11 -10 -2 -10 8 0 12 -19 12 -59 0 -38 -4 -61
-12 -64 -7 -3 5 -6 27 -6 30 -1 36 2 27 11 -7 7 -12 39 -12 75 0 64 -7 74 -40
53z"/>
<path d="M2961 4771 c-9 -6 -10 -11 -2 -15 15 -10 14 -99 -1 -114 -9 -9 -3
-12 27 -11 22 0 34 3 28 6 -19 7 -17 97 2 113 22 18 35 2 42 -47 4 -29 1 -44
-12 -56 -15 -16 -14 -17 27 -17 29 0 38 3 29 9 -8 5 -16 35 -20 72 -5 57 -9
64 -29 67 -13 2 -30 -2 -38 -8 -10 -9 -14 -9 -14 -1 0 13 -19 14 -39 2z"/>
<path d="M3136 4761 c-24 -27 -25 -85 -1 -111 24 -27 76 -27 100 0 11 12 19
36 19 55 0 19 -8 43 -19 55 -24 26 -76 27 -99 1z m68 -7 c21 -21 21 -88 0
-105 -14 -11 -19 -10 -35 10 -21 26 -25 81 -7 99 16 16 23 15 42 -4z"/>
<path d="M3457 4763 c-25 -29 -26 -93 -1 -117 23 -24 70 -20 88 6 22 31 20 45
-2 25 -30 -27 -59 -21 -71 15 -9 25 -8 36 4 55 19 29 29 29 48 1 11 -17 18
-20 27 -12 8 9 7 15 -5 28 -22 21 -68 21 -88 -1z"/>
<path d="M3683 4769 c-16 -16 -17 -65 -3 -74 8 -5 8 -11 0 -20 -6 -8 -10 -19
-9 -27 2 -7 -2 -22 -8 -34 -16 -28 -2 -45 43 -51 48 -6 97 26 92 60 -2 17 -14
24 -56 32 -54 10 -61 25 -12 25 32 0 50 17 50 46 0 12 6 24 13 27 22 8 1 17
-49 23 -33 4 -53 2 -61 -7z m63 -24 c8 -34 -2 -57 -23 -53 -19 3 -29 38 -19
64 9 23 35 16 42 -11z m24 -125 c13 -9 12 -12 -4 -25 -11 -8 -27 -15 -36 -15
-24 0 -54 25 -46 38 9 15 65 15 86 2z"/>
<path d="M3831 4771 c-9 -6 -10 -11 -2 -15 6 -4 11 -29 11 -56 0 -36 -5 -52
-17 -59 -14 -8 -8 -10 27 -10 25 0 39 3 33 6 -9 3 -13 28 -13 74 0 70 -7 80
-39 60z"/>
<path d="M4158 4768 c7 -7 12 -35 12 -62 0 -28 4 -56 8 -63 8 -12 79 -15 116
-6 17 5 18 6 3 15 -13 7 -17 23 -17 68 0 59 -1 60 -27 60 -19 0 -24 -3 -15 -9
9 -5 12 -25 10 -62 -3 -46 -6 -54 -23 -54 -18 0 -20 8 -23 63 -3 60 -4 62 -29
62 -21 0 -24 -3 -15 -12z"/>
<path d="M4560 4770 c-10 -6 -11 -10 -2 -10 8 0 12 -19 12 -59 0 -38 -4 -61
-12 -64 -7 -3 5 -6 27 -6 30 -1 36 2 27 11 -7 7 -12 39 -12 75 0 64 -7 74 -40
53z"/>
<path d="M4674 4772 c-17 -11 -34 -48 -34 -74 0 -42 27 -68 70 -68 29 0 43 6
54 22 22 31 20 84 -4 108 -20 20 -65 26 -86 12z m60 -24 c30 -43 10 -119 -28
-105 -35 14 -44 99 -13 119 19 12 25 10 41 -14z"/>
<path d="M5012 4768 c-16 -16 -15 -38 2 -38 7 0 16 9 19 21 6 24 30 21 35 -4
2 -9 -9 -22 -27 -32 -38 -19 -53 -45 -40 -67 12 -22 104 -22 122 1 9 11 9 13
0 8 -14 -9 -21 14 -25 78 -3 38 -5 40 -38 43 -19 2 -41 -3 -48 -10z m68 -77
c0 -22 -25 -45 -40 -36 -13 8 -13 28 2 43 18 18 38 14 38 -7z"/>
<path d="M5157 4763 c-25 -29 -26 -93 -1 -117 23 -24 70 -20 88 6 22 31 20 45
-2 25 -33 -30 -61 -19 -76 29 -4 14 0 29 14 45 l20 24 19 -25 c15 -18 23 -22
31 -14 8 8 7 16 -5 28 -22 21 -68 21 -88 -1z"/>
<path d="M5314 4772 c-17 -11 -34 -48 -34 -74 0 -42 27 -68 70 -68 29 0 43 6
54 22 22 31 20 84 -4 108 -20 20 -65 26 -86 12z m60 -24 c30 -43 10 -119 -28
-105 -35 14 -44 99 -13 119 19 12 25 10 41 -14z"/>
<path d="M5452 4773 c-9 -4 -10 -8 -2 -18 6 -8 10 -45 8 -92 l-3 -78 -27 3
c-16 1 -28 -2 -28 -7 0 -16 19 -23 45 -17 31 8 45 52 45 142 0 74 -4 81 -38
67z"/>
<path d="M5547 4762 c-23 -26 -22 -94 1 -115 35 -32 103 -10 102 34 -1 10 -3
9 -11 -3 -14 -25 -55 -22 -73 4 -24 34 -20 38 34 38 37 0 50 4 50 14 0 42 -73
62 -103 28z m63 -18 c0 -8 -10 -14 -25 -14 -26 0 -35 25 -12 33 18 6 37 -3 37
-19z"/>
<path d="M13105 4720 c-8 -14 24 -79 45 -90 21 -11 30 -4 30 25 0 31 -62 86
-75 65z"/>
<path d="M666 4649 c-9 -47 -8 -51 16 -47 30 4 34 28 10 56 l-19 22 -7 -31z"/>
<path d="M2460 4645 c0 -8 9 -15 20 -15 11 0 20 7 20 15 0 8 -9 15 -20 15 -11
0 -20 -7 -20 -15z"/>
<path d="M3590 4645 c0 -8 7 -15 15 -15 8 0 15 7 15 15 0 8 -7 15 -15 15 -8 0
-15 -7 -15 -15z"/>
<path d="M4480 4645 c0 -8 9 -15 20 -15 11 0 20 7 20 15 0 8 -9 15 -20 15 -11
0 -20 -7 -20 -15z"/>
<path d="M12806 4624 c-3 -9 -6 -47 -6 -86 0 -63 2 -70 21 -75 20 -5 21 -11
16 -62 -5 -55 -28 -139 -47 -173 -24 -43 9 -88 64 -88 34 0 88 56 106 110 14
41 13 45 -13 91 -16 29 -27 64 -27 86 0 29 -7 43 -35 69 -30 27 -35 38 -35 76
0 56 -29 91 -44 52z"/>
<path d="M12950 4621 c0 -25 6 -27 13 -6 4 8 2 17 -3 20 -6 4 -10 -3 -10 -14z"/>
<path d="M600 4580 c-12 -8 -11 -10 7 -10 12 0 25 5 28 10 8 13 -15 13 -35 0z"/>
<path d="M230 4255 l0 -185 305 0 305 0 0 185 0 185 -305 0 -305 0 0 -185z
m305 8 c19 -9 35 -19 35 -23 0 -7 -60 -30 -78 -30 -7 0 -12 15 -12 35 0 40 5
42 55 18z"/>
<path d="M1838 4373 c-19 -5 -25 -23 -8 -23 15 0 13 -173 -2 -188 -9 -9 -3
-12 27 -12 30 0 36 3 27 12 -30 30 -4 133 28 113 15 -9 13 -112 -2 -118 -7 -3
7 -5 32 -5 25 0 39 2 33 5 -8 3 -13 23 -13 48 0 63 -15 95 -43 95 -13 0 -28
-5 -35 -12 -9 -9 -12 0 -12 40 0 29 -3 51 -7 51 -5 -1 -16 -3 -25 -6z"/>
<path d="M2557 4267 c-39 -119 -43 -137 -27 -121 9 9 80 209 80 226 0 4 -4 8
-8 8 -4 0 -24 -51 -45 -113z"/>
<path d="M2646 4264 c-21 -63 -35 -118 -32 -121 7 -7 26 38 57 135 33 103 49
96 49 -22 0 -94 0 -94 28 -104 54 -19 101 17 102 79 0 55 -54 91 -88 57 -9 -9
-12 0 -12 40 0 56 -1 57 -31 42 -13 -7 -19 -7 -19 0 0 5 -4 10 -8 10 -4 0 -25
-52 -46 -116z m162 -6 c25 -25 5 -98 -27 -98 -25 0 -45 83 -24 103 10 11 38 8
51 -5z"/>
<path d="M2895 4370 c-7 -12 2 -30 16 -30 5 0 9 9 9 20 0 21 -15 27 -25 10z"/>
<path d="M3140 4369 c-23 -9 -23 -11 -7 -20 24 -14 25 -159 1 -183 -14 -15
-12 -16 28 -15 24 0 37 3 31 6 -9 3 -13 36 -13 114 0 60 -3 109 -7 108 -5 0
-19 -5 -33 -10z"/>
<path d="M3440 4377 c0 -2 -18 -54 -40 -115 -22 -61 -36 -114 -31 -116 5 -3
26 43 46 102 21 59 40 113 43 120 2 6 -1 12 -7 12 -6 0 -11 -1 -11 -3z"/>
<path d="M3718 4373 c-19 -5 -25 -23 -8 -23 6 0 10 -11 10 -25 0 -21 -5 -25
-29 -25 -59 0 -95 -95 -51 -135 12 -11 30 -16 49 -13 17 2 32 1 33 -3 2 -3 14
-2 27 3 19 6 22 11 13 20 -8 8 -12 49 -12 110 0 54 -3 97 -7 97 -5 -1 -16 -3
-25 -6z m-10 -95 c7 -7 12 -31 12 -55 0 -53 -23 -68 -52 -34 -22 28 -23 50 -2
79 17 25 25 27 42 10z"/>
<path d="M4417 4373 c-4 -3 -33 -5 -65 -4 -46 2 -55 0 -44 -10 8 -9 12 -45 12
-108 -1 -70 -3 -91 -11 -78 -12 21 -39 23 -39 2 0 -18 30 -34 50 -27 30 11 39
37 40 118 0 82 7 97 38 87 8 -3 12 -32 12 -98 0 -65 -4 -95 -12 -98 -7 -3 7
-5 32 -5 25 0 39 2 33 5 -7 2 -13 17 -13 31 l1 27 19 -24 c11 -12 17 -27 14
-32 -3 -5 49 -9 119 -9 l125 0 6 26 c9 34 1 42 -14 15 -8 -17 -20 -21 -55 -21
l-45 0 0 40 c0 39 1 40 35 40 19 0 35 -4 35 -10 0 -5 5 -10 10 -10 6 0 10 16
10 35 0 36 -13 47 -24 20 -3 -9 -18 -15 -36 -15 -28 0 -30 2 -30 40 l0 40 40
0 c27 0 43 -5 46 -15 9 -23 26 -18 22 8 -3 21 -8 22 -93 24 -66 2 -85 0 -72
-8 14 -8 17 -25 17 -104 0 -87 -2 -95 -19 -95 -22 0 -84 66 -78 83 2 7 18 22
37 35 l33 22 -37 0 c-20 0 -35 -4 -32 -9 3 -4 -3 -16 -14 -26 -20 -18 -20 -17
-20 48 0 49 -4 67 -13 67 -8 0 -17 -3 -20 -7z"/>
<path d="M3476 4348 c-17 -24 -13 -39 6 -20 7 7 22 12 35 12 18 0 23 -6 23
-25 0 -14 -9 -30 -20 -37 -26 -17 -25 -25 4 -32 14 -3 28 -15 31 -27 10 -30
-13 -51 -53 -47 -22 2 -37 -2 -39 -9 -3 -9 9 -13 40 -13 37 0 49 5 66 26 25
32 26 52 6 82 -12 16 -13 27 -5 41 14 27 13 37 -6 55 -23 23 -70 20 -88 -6z"/>
<path d="M3783 4353 c8 -10 30 -58 48 -108 17 -49 35 -94 39 -98 4 -5 18 22
31 60 l22 68 25 -68 c14 -37 28 -64 32 -60 4 4 22 51 39 105 30 90 49 117 72
102 5 -3 9 -47 9 -99 0 -81 -2 -94 -17 -98 -10 -3 23 -5 73 -6 91 -1 92 -1 98
25 9 34 1 42 -14 15 -8 -17 -20 -21 -55 -21 l-45 0 0 40 c0 39 1 40 35 40 19
0 35 -4 35 -10 0 -5 5 -10 10 -10 6 0 10 16 10 35 0 36 -13 47 -24 20 -3 -9
-18 -15 -36 -15 -28 0 -30 2 -30 40 l0 40 40 0 c27 0 43 -5 46 -15 9 -23 26
-18 22 8 -3 21 -7 22 -122 25 -100 2 -117 0 -108 -11 9 -10 7 -29 -9 -75 -11
-34 -22 -62 -24 -62 -2 0 -13 28 -24 62 -16 46 -18 65 -10 75 9 10 2 13 -37
13 l-48 0 22 -20 c24 -23 27 -48 8 -99 -14 -39 -16 -37 -41 37 -13 42 -14 56
-5 67 11 13 5 15 -35 15 -45 0 -47 -1 -32 -17z"/>
<path d="M2971 4320 c-15 -21 -20 -35 -13 -39 6 -4 12 -33 14 -66 3 -52 6 -60
24 -63 11 -2 27 4 34 13 12 15 11 16 -6 13 -16 -3 -19 4 -22 50 -2 42 0 52 12
52 9 0 16 5 16 10 0 6 -6 10 -14 10 -8 0 -16 12 -18 26 l-3 26 -24 -32z"/>
<path d="M1991 4313 c-14 -16 -19 -29 -12 -31 6 -2 11 -25 11 -52 0 -27 3 -55
6 -64 8 -21 50 -21 58 0 4 12 2 15 -9 10 -12 -4 -15 5 -15 49 0 52 1 55 25 55
23 0 25 -3 25 -49 0 -27 3 -56 6 -65 8 -21 50 -21 58 0 4 12 2 15 -9 10 -12
-4 -15 5 -15 49 0 55 4 60 34 49 13 -5 16 -23 16 -88 0 -50 -5 -87 -12 -94 -9
-9 -2 -12 33 -12 35 1 40 3 27 11 -10 5 -18 21 -18 34 0 20 5 24 32 23 21 -1
37 6 50 22 22 28 24 93 2 114 -18 19 -55 21 -72 4 -9 -9 -12 -9 -12 0 0 7 -10
12 -22 11 -45 -4 -58 1 -58 21 0 11 -4 20 -10 20 -5 0 -14 -9 -20 -20 -6 -12
-21 -20 -35 -20 -18 0 -25 5 -25 20 0 27 -10 25 -39 -7z m270 -67 c22 -49 -12
-104 -46 -76 -15 12 -21 81 -8 93 14 15 44 6 54 -17z"/>
<path d="M2330 4280 c-13 -25 -1 -51 34 -69 31 -17 41 -40 19 -48 -10 -4 -23
2 -34 15 -22 28 -29 28 -29 -2 0 -19 6 -25 29 -28 37 -5 66 6 75 28 8 20 -18
64 -38 64 -7 0 -19 7 -26 15 -10 13 -11 18 -1 28 10 9 16 7 31 -10 23 -29 30
-29 30 2 0 22 -4 25 -40 25 -29 0 -42 -5 -50 -20z"/>
<path d="M2462 4283 c2 -10 10 -18 18 -18 8 0 16 8 18 18 2 12 -3 17 -18 17
-15 0 -20 -5 -18 -17z"/>
<path d="M2880 4289 c-11 -8 -12 -12 -2 -16 7 -3 12 -25 12 -58 0 -33 -5 -55
-12 -58 -7 -3 5 -6 27 -6 30 -1 36 2 27 11 -7 7 -12 39 -12 75 0 65 -8 75 -40
52z"/>
<path d="M3212 4293 c2 -5 18 -37 36 -72 28 -53 32 -68 23 -87 -7 -16 -18 -23
-33 -21 -15 1 -23 -3 -23 -13 0 -9 9 -15 25 -15 27 0 30 5 93 143 l33 72 -23
0 c-13 0 -22 -4 -18 -9 3 -5 -2 -29 -12 -52 l-17 -43 -17 39 c-13 28 -15 43
-7 52 8 10 2 13 -27 13 -20 0 -35 -3 -33 -7z"/>
<path d="M13250 4248 c-7 -23 -10 -59 -8 -80 2 -24 -1 -39 -9 -42 -18 -7 -16
-45 2 -52 20 -8 19 -33 -2 -41 -29 -10 -63 -45 -63 -65 0 -13 8 -18 28 -18 22
0 33 9 52 40 14 22 28 40 33 40 12 0 8 65 -7 85 -11 16 -11 21 0 33 20 20 19
142 -1 142 -8 0 -19 -17 -25 -42z"/>
<path d="M2460 4165 c0 -8 9 -15 20 -15 11 0 20 7 20 15 0 8 -9 15 -20 15 -11
0 -20 -7 -20 -15z"/>
<path d="M3060 4166 c0 -8 4 -17 9 -20 11 -7 33 18 24 27 -12 12 -33 7 -33 -7z"/>
<path d="M12651 4079 c-54 -33 -131 -101 -131 -116 0 -10 19 -13 73 -13 l73 0
21 38 c12 20 24 54 28 75 6 32 5 37 -11 37 -11 0 -34 -10 -53 -21z"/>
<path d="M775 3933 c-104 -14 -230 -84 -261 -145 -16 -32 -15 -32 19 7 88 101
283 152 422 110 51 -15 70 -14 38 3 -46 24 -141 35 -218 25z"/>
<path d="M1876 3900 c-14 -4 -16 -9 -8 -14 16 -10 16 -148 0 -164 -9 -9 -5
-12 21 -12 28 0 31 2 22 14 -7 8 -11 32 -9 53 2 30 7 38 23 38 16 0 21 -8 23
-44 2 -28 -1 -47 -10 -52 -9 -6 -3 -9 18 -9 l30 0 -6 53 c-7 62 -15 77 -40 77
-10 0 -22 -6 -27 -12 -5 -8 -10 5 -13 33 -4 40 -7 45 -24 39z"/>
<path d="M2521 3817 c-18 -54 -31 -100 -28 -103 7 -7 69 174 64 189 -2 6 -18
-32 -36 -86z"/>
<path d="M2601 3817 c-18 -54 -31 -100 -28 -103 6 -7 69 176 64 189 -2 7 -18
-32 -36 -86z"/>
<path d="M3110 3895 c0 -9 5 -15 11 -13 6 2 11 8 11 13 0 5 -5 11 -11 13 -6 2
-11 -4 -11 -13z"/>
<path d="M3393 3902 c-8 -5 -9 -13 -3 -22 17 -27 11 -40 -19 -40 -49 0 -77
-61 -51 -110 8 -16 21 -19 60 -19 28 1 53 6 56 10 3 5 0 9 -5 9 -7 0 -11 33
-11 90 0 88 -3 97 -27 82z m-3 -92 c18 -33 9 -74 -17 -78 -17 -3 -24 3 -29 22
-14 59 22 102 46 56z"/>
<path d="M3783 3902 c-8 -5 -9 -13 -3 -22 17 -27 11 -40 -19 -40 -49 0 -77
-61 -51 -110 8 -16 21 -19 60 -19 28 1 53 6 56 10 3 5 0 9 -5 9 -7 0 -11 33
-11 90 0 88 -3 97 -27 82z m-3 -92 c18 -33 9 -74 -17 -78 -17 -3 -24 3 -29 22
-14 59 22 102 46 56z"/>
<path d="M4455 3900 c-4 -6 -19 -47 -34 -92 -32 -95 -51 -112 -51 -45 0 25 -3
52 -6 61 -7 18 -49 22 -59 6 -5 -8 -11 -8 -19 -1 -13 11 -101 9 -113 -2 -3 -4
-1 -7 5 -7 17 0 16 -97 0 -103 -7 -3 5 -6 27 -6 25 0 35 2 27 8 -9 5 -12 24
-10 52 2 36 7 44 23 44 16 0 21 -8 23 -38 2 -21 -2 -45 -9 -53 -9 -12 -6 -14
22 -14 26 0 30 3 21 12 -27 27 -9 98 25 98 18 0 18 -96 1 -103 -7 -3 7 -6 32
-6 l46 -1 32 97 c29 88 35 122 17 93z"/>
<path d="M4651 3817 c-18 -54 -31 -100 -28 -103 7 -7 69 174 64 189 -2 6 -18
-32 -36 -86z"/>
<path d="M4866 3903 c-11 -11 -6 -23 9 -23 8 0 15 4 15 9 0 13 -16 22 -24 14z"/>
<path d="M5215 3904 c-6 -2 -9 -40 -7 -94 3 -86 5 -90 28 -96 40 -10 70 3 85
37 18 46 -4 85 -49 83 -31 -2 -32 0 -32 37 0 38 -3 42 -25 33z m73 -96 c29
-29 3 -98 -33 -84 -15 5 -22 76 -8 89 10 11 28 8 41 -5z"/>
<path d="M5486 3900 c-14 -4 -16 -9 -8 -14 16 -10 16 -148 0 -164 -9 -9 -5
-12 21 -12 28 0 31 2 22 14 -7 8 -11 32 -9 53 2 30 7 38 23 38 16 0 21 -8 23
-44 2 -28 -1 -47 -10 -52 -9 -6 -3 -9 18 -9 l30 0 -6 53 c-7 62 -15 77 -40 77
-10 0 -22 -6 -27 -12 -5 -8 -10 5 -13 33 -4 40 -7 45 -24 39z"/>
<path d="M5963 3902 c-8 -5 -9 -13 -3 -22 17 -27 11 -40 -19 -40 -49 0 -77
-61 -51 -110 8 -16 21 -19 60 -19 28 1 53 6 56 10 3 5 0 9 -5 9 -7 0 -11 33
-11 90 0 88 -3 97 -27 82z m-3 -92 c18 -33 9 -74 -17 -78 -17 -3 -24 3 -29 22
-14 59 22 102 46 56z"/>
<path d="M6456 3903 c-11 -11 -6 -23 9 -23 8 0 15 4 15 9 0 13 -16 22 -24 14z"/>
<path d="M6543 3837 c-24 -34 -43 -66 -43 -70 0 -4 18 -7 40 -7 36 0 40 -2 40
-25 0 -16 6 -25 15 -25 9 0 15 9 15 24 0 13 6 27 13 30 10 5 10 7 0 12 -8 4
-13 27 -13 65 0 41 -4 59 -12 59 -7 0 -32 -29 -55 -63z m37 -17 c0 -36 -2 -40
-25 -40 -14 0 -25 2 -25 5 0 6 44 75 48 75 1 0 2 -18 2 -40z"/>
<path d="M6690 3841 c-22 -33 -40 -65 -40 -70 0 -6 18 -11 40 -11 36 0 40 -2
40 -25 0 -14 5 -25 10 -25 6 0 10 11 10 25 0 16 6 25 15 25 8 0 15 5 15 10 0
6 -7 10 -15 10 -12 0 -15 13 -15 60 0 33 -4 60 -10 60 -5 0 -27 -27 -50 -59z
m37 -58 c-3 -2 -17 -3 -31 -1 l-26 3 27 40 28 40 3 -39 c2 -21 1 -40 -1 -43z"/>
<path d="M7307 3865 c-21 -45 -22 -41 12 -48 34 -7 55 -38 46 -68 -5 -16 -14
-20 -38 -17 -18 2 -34 -1 -37 -7 -11 -22 52 -17 76 6 38 35 27 91 -22 109 -34
13 -30 28 8 32 44 4 49 28 6 28 -29 0 -37 -5 -51 -35z"/>
<path d="M2023 3855 c-12 -14 -18 -25 -13 -25 5 0 10 -26 12 -57 3 -50 6 -58
24 -61 12 -2 24 4 27 12 4 10 1 13 -9 9 -11 -4 -14 5 -14 46 0 47 2 51 25 51
22 0 24 -4 27 -57 3 -50 6 -58 24 -61 12 -2 24 4 27 12 4 10 1 13 -9 9 -11 -4
-14 6 -14 47 0 43 3 51 16 46 9 -3 18 -6 20 -6 2 0 4 -36 4 -79 0 -54 -4 -81
-12 -84 -7 -3 5 -5 27 -5 22 0 34 2 28 5 -7 2 -13 15 -13 28 0 19 6 24 32 27
25 2 36 10 47 32 25 53 -16 115 -59 88 -13 -8 -20 -8 -20 -1 0 5 -8 9 -17 8
-41 -4 -53 1 -54 24 l0 22 -16 -22 c-20 -29 -60 -31 -65 -3 -3 18 -4 18 -25
-5z m232 -69 c11 -33 -3 -61 -31 -61 -15 0 -20 9 -22 39 -5 59 34 76 53 22z"/>
<path d="M738 3844 c-35 -18 -36 -39 -3 -60 49 -32 165 -10 165 31 0 38 -109
58 -162 29z"/>
<path d="M2322 3828 c-20 -20 -14 -34 26 -66 32 -26 35 -31 19 -37 -11 -5 -25
-1 -37 10 -19 17 -20 17 -20 -3 0 -18 6 -22 34 -22 63 0 73 50 15 82 -16 10
-27 22 -24 28 10 16 33 12 44 -7 9 -16 10 -16 11 5 0 18 -6 22 -28 22 -15 0
-33 -5 -40 -12z"/>
<path d="M2435 3831 c-7 -12 12 -24 25 -16 11 7 4 25 -10 25 -5 0 -11 -4 -15
-9z"/>
<path d="M2661 3831 c-9 -6 -10 -11 -2 -15 15 -10 14 -79 -1 -94 -9 -9 -5 -12
21 -12 28 0 31 2 22 14 -7 8 -11 32 -9 53 2 31 7 39 26 41 20 3 22 0 22 -46 0
-31 -5 -52 -12 -55 -7 -3 5 -6 27 -6 25 0 35 2 27 8 -9 5 -12 24 -10 52 2 36
7 44 23 44 16 0 21 -8 23 -44 2 -28 -1 -47 -10 -52 -8 -6 -2 -9 20 -9 29 0 32
2 22 19 -5 11 -10 38 -10 61 0 46 -17 59 -56 42 -15 -7 -24 -8 -24 -2 0 14
-44 12 -58 -2 -9 -9 -12 -9 -12 0 0 14 -10 15 -29 3z"/>
<path d="M2900 3779 c35 -68 33 -99 -6 -99 -27 0 -32 -17 -8 -27 23 -9 40 14
79 105 30 71 32 82 17 82 -12 0 -17 -9 -18 -31 -2 -48 -20 -57 -39 -19 -14 27
-15 34 -3 41 9 6 2 9 -20 9 l-32 0 30 -61z"/>
<path d="M3100 3830 c-10 -6 -11 -10 -2 -10 16 0 16 -82 0 -98 -9 -9 -4 -12
22 -12 26 0 31 3 22 12 -7 7 -12 36 -12 65 0 54 -4 60 -30 43z"/>
<path d="M3165 3831 c-3 -5 -1 -12 5 -16 14 -9 13 -78 -2 -93 -9 -9 -4 -12 22
-12 23 0 30 3 22 9 -9 5 -12 24 -10 52 2 36 7 44 23 44 16 0 21 -8 23 -44 2
-28 -1 -47 -10 -52 -9 -6 -3 -9 18 -9 l30 0 -6 53 c-3 28 -9 58 -13 65 -10 15
-39 16 -55 0 -9 -9 -12 -9 -12 0 0 14 -26 16 -35 3z"/>
<path d="M3467 3822 c-22 -24 -22 -76 -1 -97 23 -22 63 -15 83 14 l16 25 -29
-19 c-28 -19 -29 -19 -47 4 -28 34 -24 41 26 41 49 0 50 1 35 31 -14 25 -61
25 -83 1z m51 -10 c2 -7 -6 -12 -17 -12 -21 0 -27 11 -14 24 9 9 26 2 31 -12z"/>
<path d="M3590 3825 c-16 -20 -17 -80 -1 -99 25 -30 91 -15 91 22 0 10 -3 10
-16 -2 -8 -9 -19 -16 -24 -16 -14 0 -40 30 -40 46 0 10 12 14 40 14 41 0 52
14 28 38 -17 17 -63 15 -78 -3z m58 -12 c2 -8 -6 -13 -22 -13 -25 0 -33 10
-19 24 10 10 36 3 41 -11z"/>
<path d="M3936 3825 c-23 -24 -28 -52 -14 -82 16 -35 65 -44 85 -17 19 26 16
40 -5 21 -24 -22 -39 -21 -52 2 -15 28 -12 57 6 72 14 11 18 11 29 -4 13 -17
35 -23 35 -9 0 31 -58 42 -84 17z"/>
<path d="M4057 3822 c-22 -25 -21 -75 1 -95 42 -38 102 -8 102 50 0 55 -67 85
-103 45z m63 -11 c28 -53 -4 -120 -36 -76 -15 20 -19 77 -7 88 12 13 32 7 43
-12z"/>
<path d="M4479 3829 c-10 -6 -11 -9 -1 -9 8 0 12 -23 12 -79 0 -54 -4 -81 -12
-84 -7 -3 5 -5 27 -5 22 0 34 2 28 5 -7 2 -13 16 -13 29 0 19 5 24 23 24 47 0
73 62 47 110 -8 15 -21 19 -54 18 -24 0 -50 -4 -57 -9z m80 -23 c7 -8 11 -30
9 -48 -2 -25 -8 -33 -23 -33 -15 0 -21 8 -23 33 -6 57 12 79 37 48z"/>
<path d="M4702 3823 c8 -10 24 -39 34 -65 10 -27 21 -48 24 -48 3 0 19 29 36
65 27 59 28 65 11 65 -10 0 -16 -4 -13 -9 6 -10 -15 -71 -25 -71 -11 0 -31 58
-24 69 4 7 -6 11 -26 11 -30 0 -31 -1 -17 -17z"/>
<path d="M4850 3830 c-10 -6 -11 -10 -2 -10 8 0 12 -17 12 -49 0 -30 -5 -51
-12 -54 -7 -3 21 -5 62 -5 41 0 69 2 63 5 -20 7 -17 92 3 100 9 3 20 0 25 -8
13 -20 11 -73 -3 -87 -9 -9 -4 -12 23 -12 19 0 29 4 22 8 -6 4 -13 32 -15 62
l-3 55 -45 1 c-25 1 -52 -2 -60 -7 -10 -5 -11 -8 -2 -9 8 0 12 -17 12 -50 0
-43 -3 -50 -20 -50 -18 0 -20 7 -20 60 0 61 -8 71 -40 50z"/>
<path d="M5086 3825 c-23 -24 -28 -52 -14 -82 10 -22 21 -29 49 -31 44 -4 63
16 63 65 0 55 -61 85 -98 48z m58 -17 c21 -29 20 -62 0 -79 -14 -11 -19 -10
-35 10 -22 26 -24 44 -9 72 14 25 25 24 44 -3z"/>
<path d="M5366 3825 c-23 -24 -28 -52 -14 -82 16 -35 65 -44 85 -17 19 26 16
40 -5 21 -24 -22 -39 -21 -52 2 -15 28 -12 57 6 72 14 11 18 11 29 -4 13 -17
35 -23 35 -9 0 31 -58 42 -84 17z"/>
<path d="M5623 3825 c-9 -24 5 -31 21 -10 7 10 18 15 24 11 20 -12 13 -31 -17
-44 -31 -14 -44 -34 -35 -56 4 -9 29 -13 97 -13 51 -1 86 1 80 4 -20 7 -17 92
3 100 9 3 20 0 25 -8 13 -20 11 -73 -3 -87 -9 -9 -4 -12 23 -12 19 0 29 4 22
8 -6 4 -13 32 -15 62 l-3 55 -45 1 c-25 1 -52 -2 -60 -7 -10 -5 -11 -8 -2 -9
15 0 17 -100 2 -100 -5 0 -10 5 -10 11 0 5 -4 7 -10 4 -6 -4 -10 10 -10 34 0
21 -3 46 -6 55 -8 21 -72 22 -81 1z m57 -70 c0 -15 -6 -25 -14 -25 -22 0 -30
19 -16 35 18 22 30 18 30 -10z"/>
<path d="M6040 3825 c-16 -20 -17 -80 -1 -99 25 -30 91 -15 91 22 0 10 -3 10
-16 -2 -8 -9 -19 -16 -24 -16 -14 0 -40 30 -40 46 0 10 12 14 40 14 41 0 52
14 28 38 -17 17 -63 15 -78 -3z m58 -12 c2 -8 -6 -13 -22 -13 -25 0 -33 10
-19 24 10 10 36 3 41 -11z"/>
<path d="M6148 3829 c-10 -7 -10 -9 0 -9 8 0 12 -17 12 -49 0 -30 -5 -51 -12
-54 -7 -3 5 -6 27 -6 25 0 35 2 27 8 -9 5 -12 23 -10 52 3 40 5 43 33 44 28 0
30 -3 33 -38 2 -21 -2 -45 -9 -53 -9 -12 -6 -14 22 -14 26 0 30 3 21 12 -14
14 -16 67 -4 86 5 7 16 10 25 6 11 -4 17 -1 17 8 0 11 -18 14 -84 15 -47 0
-91 -4 -98 -8z"/>
<path d="M6440 3830 c-10 -6 -11 -10 -2 -10 8 0 12 -22 12 -75 0 -65 -2 -74
-17 -72 -23 3 -30 -17 -8 -21 9 -2 25 4 36 14 16 14 19 31 19 96 0 80 -6 90
-40 68z"/>
<path d="M6818 3775 c14 -36 29 -65 33 -65 3 0 12 14 19 30 7 17 16 30 20 30
5 0 11 -13 15 -30 4 -16 10 -30 14 -30 4 0 19 27 34 60 14 33 30 60 36 60 6 0
24 -26 40 -58 31 -62 28 -92 -9 -92 -11 0 -20 -7 -20 -15 0 -16 18 -19 37 -7
6 4 26 39 42 77 17 39 36 78 41 88 8 14 6 17 -11 17 -11 0 -18 -4 -15 -9 6
-10 -15 -71 -25 -71 -11 0 -31 58 -24 69 4 7 -11 11 -43 11 l-49 0 -7 -40 c-8
-48 -18 -51 -34 -8 -9 25 -9 34 1 40 7 5 -1 8 -21 8 -28 0 -31 -2 -21 -17 8
-13 7 -26 -1 -48 l-12 -30 -14 39 c-8 21 -11 42 -8 47 3 5 -6 9 -19 9 l-24 0
25 -65z"/>
<path d="M7160 3826 c-6 -8 -10 -25 -8 -37 7 -52 84 -51 95 1 3 17 11 30 17
31 18 2 -37 17 -65 18 -15 1 -32 -6 -39 -13z m55 -30 c0 -35 -20 -45 -34 -17
-14 25 -3 53 18 49 10 -2 16 -13 16 -32z"/>
<path d="M6340 3775 c0 -10 11 -15 35 -15 24 0 35 5 35 15 0 10 -11 15 -35 15
-24 0 -35 -5 -35 -15z"/>
<path d="M7155 3740 c-3 -5 -4 -14 0 -19 3 -5 1 -12 -5 -16 -16 -10 -12 -42 6
-49 50 -19 108 6 102 46 -2 18 -10 24 -38 26 -19 2 -40 8 -47 13 -7 7 -13 6
-18 -1z m91 -41 c9 -15 -14 -29 -48 -29 -28 0 -43 13 -33 30 8 14 72 13 81 -1z"/>
<path d="M2435 3731 c-7 -12 12 -24 25 -16 11 7 4 25 -10 25 -5 0 -11 -4 -15
-9z"/>
<path d="M3025 3731 c-7 -12 12 -24 25 -16 11 7 4 25 -10 25 -5 0 -11 -4 -15
-9z"/>
<path d="M3855 3731 c-7 -12 12 -24 25 -16 11 7 4 25 -10 25 -5 0 -11 -4 -15
-9z"/>
<path d="M782 3723 l-33 -4 3 -82 c3 -79 4 -82 31 -91 17 -6 37 -6 55 0 26 9
27 12 30 97 l3 87 -28 -2 c-15 0 -43 -3 -61 -5z"/>
</g>
</svg>
